<?xml version="1.0" standalone="no"?>
<!DOCTYPE svg PUBLIC "-//W3C//DTD SVG 20010904//EN"
 "http://www.w3.org/TR/2001/REC-SVG-20010904/DTD/svg10.dtd">
<svg version="1.0" xmlns="http://www.w3.org/2000/svg"
 width="436.000000pt" height="436.000000pt" viewBox="0 0 436.000000 436.000000"
 preserveAspectRatio="xMidYMid meet">
<metadata>
Created by potrace 1.14, written by Peter Selinger 2001-2017
</metadata>
<g transform="translate(0.000000,436.000000) scale(0.100000,-0.100000)"
fill="#000000" stroke="none">
<path d="M739 3722 c0 -10 -1 -470 -2 -1024 l-2 -1008 137 0 136 0 0 346 0
345 59 61 c32 34 88 93 124 131 l66 70 149 -196 c82 -107 245 -321 363 -476
l214 -281 159 0 c87 0 158 3 158 6 0 5 -24 37 -103 139 -36 46 -321 421 -437
575 -80 106 -177 234 -216 284 -111 144 -108 137 -81 166 12 14 56 63 97 110
41 47 77 87 80 90 3 3 37 41 75 84 39 44 77 87 85 96 8 9 47 51 85 95 39 43
77 86 85 95 8 9 30 34 49 55 28 32 99 113 186 209 42 47 49 45 -126 44 l-163
-1 -45 -51 c-24 -28 -50 -56 -55 -62 -6 -6 -39 -42 -72 -80 -34 -38 -73 -80
-85 -95 -13 -14 -53 -58 -89 -98 -36 -40 -76 -85 -90 -100 -26 -28 -146 -162
-181 -202 -11 -13 -41 -46 -67 -74 -56 -61 -161 -178 -196 -220 l-26 -30 -1
45 c0 25 -1 252 -2 505 l-2 460 -132 2 c-118 1 -133 -1 -134 -15z"/>
<path d="M2549 2271 c0 -709 0 -1513 0 -1538 l1 -23 620 0 620 0 0 110 0 110
-485 0 -485 0 0 303 c0 166 -1 577 -3 912 l-2 610 -132 1 -133 2 -1 -487z"/>
</g>
</svg>
